/* XPM */
static char * close_pressed_xpm[] = {
"20 24 19 1",
" 	c None",
".	c #939393",
"+	c #FFFFFF",
"@	c #DEDEDE",
"#	c #70BC68",
"$	c #5BB551",
"%	c #ECECEC",
"&	c #62BA58",
"*	c #62BB59",
"=	c #63BA5A",
"-	c #6CC163",
";	c #75C86C",
">	c #75C76D",
",	c #7FCF77",
"'	c #7ECF75",
")	c #7DCF77",
"!	c #7ECE76",
"~	c #87D57F",
"{	c #86D680",
"....................",
"++++++++++++++++++++",
"@@@@@@@@@@@@@@@@@@@@",
"@@@@@@@@@@@@@@@@@@@@",
"@@@@@@@@@@@@@@@@@@@@",
"@@@@@@@@@@@@@@@@@@@@",
"@@@@@@@@@@@@@@@@@@@@",
"@@@@@@@@@@@@@@@@@@@@",
"@@@@@@@@@@@@@@@@@@@@",
"@@@@@@##@@@@##@@@@@@",
"@@@@@@$$#@@#$$@@@@@@",
"@@@@@@%$$##$$%@@@@@@",
"@@@@@@@%&**=%@@@@@@@",
"@@@@@@@@----@@@@@@@@",
"@@@@@@@#;;>;#@@@@@@@",
"@@@@@@#,'%%)!#@@@@@@",
"@@@@@@~~%@@%~{@@@@@@",
"@@@@@@%%@@@@%%@@@@@@",
"@@@@@@@@@@@@@@@@@@@@",
"@@@@@@@@@@@@@@@@@@@@",
"@@@@@@@@@@@@@@@@@@@@",
"@@@@@@@@@@@@@@@@@@@@",
"@@@@@@@@@@@@@@@@@@@@",
"@@@@@@@@@@@@@@@@@@@@"};
