/* XPM */
static char * shade_pressed_xpm[] = {
"20 24 22 1",
" 	c None",
".	c #8D8D8D",
"+	c #FFFFFF",
"@	c #DEDEDE",
"#	c #78C870",
"$	c #82CA78",
"%	c #77C36F",
"&	c #6FC066",
"*	c #82C77B",
"=	c #81C47A",
"-	c #64B95B",
";	c #6EC165",
">	c #70C167",
",	c #8BCA84",
"'	c #89C183",
")	c #5BB252",
"!	c #8DC389",
"~	c #EAECEA",
"{	c #E3ECE2",
"]	c #E9EDE9",
"^	c #92D58B",
"/	c #99DA92",
"....................",
"++++++++++++++++++++",
"@@@@@@@@@@@@@@@@@@@@",
"@@@@@@@@@@@@@@@@@@@@",
"@@@@@@@@@@@@@@@@@@@@",
"@@@@@@@@@@@@@@@@@@@@",
"@@@@@@@@@@@@@@@@@@@@",
"@@@@@@@@@@@@@@@@@@@@",
"@@@@@@@@@@@@@@@@@@@@",
"@@@@@@@@@#$@@@@@@@@@",
"@@@@@@@@%&&*@@@@@@@@",
"@@@@@@@=-;>-,@@@@@@@",
"@@@@@@')!;;!)!@@@@@@",
"@@@@@@~{];;]]~@@@@@@",
"@@@@@@@@@##@@@@@@@@@",
"@@@@@@@@@^^@@@@@@@@@",
"@@@@@@@@@//@@@@@@@@@",
"@@@@@@@@@]]@@@@@@@@@",
"@@@@@@@@@@@@@@@@@@@@",
"@@@@@@@@@@@@@@@@@@@@",
"@@@@@@@@@@@@@@@@@@@@",
"@@@@@@@@@@@@@@@@@@@@",
"@@@@@@@@@@@@@@@@@@@@",
"@@@@@@@@@@@@@@@@@@@@"};
