<?xml version="1.0" encoding="UTF-8" standalone="no"?>
<!DOCTYPE svg PUBLIC "-//W3C//DTD SVG 1.0//EN"
"http://www.w3.org/TR/2001/REC-SVG-20010904/DTD/svg10.dtd">
<!-- Created with Inkscape (http://www.inkscape.org/) -->
<svg
   xmlns="http://www.w3.org/2000/svg"
   xmlns:xlink="http://www.w3.org/1999/xlink"
   version="1.0"
   x="0.0000000"
   y="0.0000000"
   width="29.999969"
   height="29.999969"
   viewBox="0 0 24 24"
   id="svg574">
  <defs
     id="defs577">
    <linearGradient
       id="linearGradient609">
      <stop
         style="stop-color:#98a7db;stop-opacity:1.0000000;"
         offset="0.0000000"
         id="stop610" />
      <stop
         style="stop-color:#5d70ae;stop-opacity:1.0000000;"
         offset="1.0000000"
         id="stop611" />
    </linearGradient>
    <linearGradient
       id="linearGradient606">
      <stop
         style="stop-color:#97c890;stop-opacity:1.0000000;"
         offset="0.0000000"
         id="stop607" />
      <stop
         style="stop-color:#407240;stop-opacity:1.0000000;"
         offset="1.0000000"
         id="stop608" />
    </linearGradient>
    <linearGradient
       id="linearGradient603">
      <stop
         style="stop-color:#97c890;stop-opacity:1.0000000;"
         offset="0.0000000"
         id="stop604" />
      <stop
         style="stop-color:#407240;stop-opacity:1.0000000;"
         offset="1.0000000"
         id="stop605" />
    </linearGradient>
    <linearGradient
       id="linearGradient600">
      <stop
         style="stop-color:#97c890;stop-opacity:1.0000000;"
         offset="0.0000000"
         id="stop601" />
      <stop
         style="stop-color:#407240;stop-opacity:1.0000000;"
         offset="1.0000000"
         id="stop602" />
    </linearGradient>
    <linearGradient
       id="linearGradient578">
      <stop
         style="stop-color:#97c890;stop-opacity:1.0000000;"
         offset="0.0000000"
         id="stop579" />
      <stop
         style="stop-color:#ffffff;stop-opacity:1.0000000;"
         offset="1.0000000"
         id="stop580" />
    </linearGradient>
    <linearGradient
       x1="0.51456308"
       y1="0.45794392"
       x2="0.51456308"
       y2="0.52336448"
       id="linearGradient581"
       xlink:href="#linearGradient609" />
    <linearGradient
       x1="0.52591354"
       y1="0.38228640"
       x2="0.52591354"
       y2="0.68064755"
       id="linearGradient1000"
       xlink:href="#linearGradient609" />
  </defs>
  <path
     d="M 2.3345610,3.4447317 C 2.3345610,3.4447317 2.3345620,19.475464 2.3345620,19.475464 C 2.3345620,19.475464 5.3198600,19.475464 5.3198600,19.475464 C 5.3198600,19.475464 5.3047160,11.081700 5.3047160,11.081700 C 5.3047160,11.081700 14.365296,19.354306 14.365296,19.354306 C 14.365296,19.354306 14.365296,15.414885 14.365296,15.414885 C 14.365296,15.414885 21.122978,15.384595 21.122978,15.384595 C 21.122978,15.384595 21.122978,7.5356005 21.122978,7.5356005 C 21.122978,7.5356005 14.365296,7.5658901 14.365296,7.5658901 C 14.365296,7.5658901 14.365296,3.4447316 14.365296,3.4447316 C 14.365296,3.4447316 5.3047160,12.080814 5.3047160,12.080814 C 5.3047160,12.080814 5.3047160,3.4447317 5.3047160,3.4447317 C 5.3047160,3.4447317 2.3345610,3.4447317 2.3345610,3.4447317 z "
     style="font-size:12.000000;fill:url(#linearGradient1000);stroke:#000000;stroke-width:0.90000093;stroke-miterlimit:4.0000000"
     id="path998" />
  <path
     d="M 19.851573,8.1772640 L 19.899758,14.167451 L 13.199930,14.173553 L 13.213611,17.261957"
     style="fill:none;fill-opacity:0.75000000;fill-rule:evenodd;stroke:#000000;stroke-width:2.1500022;stroke-linecap:round;stroke-linejoin:round;stroke-miterlimit:4.0000000;stroke-opacity:0.10999996"
     id="path869" />
  <path
     d="M 3.4085401,18.718537 C 3.4085401,18.718537 3.4108765,4.2258525 3.4108765,4.2258525 M 6.8329780,11.685493 C 6.8329780,11.685493 13.791281,4.8612399 13.791281,4.8612399 M 14.077753,8.4262267 C 14.077753,8.4262267 20.500755,8.3733525 20.500755,8.3733525"
     style="fill:none;fill-opacity:0.75000000;fill-rule:evenodd;stroke:#ffffff;stroke-width:0.80000079;stroke-linecap:round;stroke-linejoin:round"
     id="path1049" />
</svg>
