<?xml version="1.0" encoding="UTF-8" standalone="no"?>
<!DOCTYPE svg PUBLIC "-//W3C//DTD SVG 1.0//EN"
"http://www.w3.org/TR/2001/REC-SVG-20010904/DTD/svg10.dtd">
<!-- Created with Inkscape (http://www.inkscape.org/) -->
<svg
   xmlns="http://www.w3.org/2000/svg"
   xmlns:xlink="http://www.w3.org/1999/xlink"
   version="1.0"
   x="0.0000000"
   y="0.0000000"
   width="30.000000"
   height="30.000000"
   id="svg951">
  <defs
     id="defs953" />
  <path
     d="M 13.019571,12.751018 C 13.019571,12.751018 6.4052716,12.751018 6.4052716,12.751018 C 5.0702885,12.751018 5.1522379,18.278577 6.4052716,18.278577 C 6.4052716,18.278577 13.019571,18.278577 13.019571,18.278577 C 13.019571,18.278578 13.019571,24.654150 13.019571,24.654150 C 13.019571,25.909707 18.547130,25.827607 18.547130,24.654150 C 18.547130,24.654150 18.547130,18.278577 18.547130,18.278577 C 18.547130,18.278577 25.081853,18.278577 25.081853,18.278577 C 26.337411,18.278577 26.418846,12.751018 25.081853,12.751018 C 25.081853,12.751018 18.547130,12.751018 18.547130,12.751018 C 18.547130,12.751018 18.547130,6.5345976 18.547130,6.5345976 C 18.547130,5.1201725 13.019571,5.1224127 13.019571,6.5345976 C 13.019571,6.5345976 13.019571,12.751018 13.019571,12.751018 z "
     style="fill:none;fill-opacity:1.0000000;fill-rule:evenodd;stroke:#313131;stroke-width:1.5000000;stroke-miterlimit:4.0000000;stroke-opacity:0.49999997;"
     id="path1002" />
  <path
     d="M 11.905512,11.716535 C 11.905512,11.716535 5.2912133,11.716535 5.2912133,11.716535 C 3.9562302,11.716535 4.0381796,17.244094 5.2912133,17.244094 C 5.2912133,17.244094 11.905512,17.244094 11.905512,17.244094 C 11.905512,17.244095 11.905512,23.619667 11.905512,23.619667 C 11.905512,24.875224 17.433071,24.793124 17.433071,23.619667 C 17.433071,23.619667 17.433071,17.244094 17.433071,17.244094 C 17.433071,17.244094 23.967794,17.244094 23.967794,17.244094 C 25.223352,17.244094 25.304787,11.716535 23.967794,11.716535 C 23.967794,11.716535 17.433071,11.716535 17.433071,11.716535 C 17.433071,11.716535 17.433071,5.5001148 17.433071,5.5001148 C 17.433071,4.0856897 11.905512,4.0879299 11.905512,5.5001148 C 11.905512,5.5001148 11.905512,11.716535 11.905512,11.716535 z "
     style="fill:#7f80c8;fill-opacity:1.0000000;fill-rule:evenodd;stroke:#313131;stroke-width:1.5000000;stroke-miterlimit:4.0000000;stroke-opacity:1.0000000;"
     id="path954" />
  <path
     d="M 13.979940,22.956180 C 13.615450,22.041220 13.763186,17.126021 13.965696,16.592061 M 5.8054780,14.053690 C 5.8054780,13.167870 11.202740,13.375410 12.452740,13.650780 M 16.776181,13.561144 C 17.635571,13.363904 22.937400,13.237490 23.413270,13.718450 M 13.629828,12.140263 C 13.549268,10.236262 13.129850,4.4288400 14.809270,6.2876300"
     style="fill:none;fill-opacity:0.72027999;fill-rule:evenodd;stroke:#ffffff;stroke-width:1.1250000;stroke-linecap:round;stroke-opacity:0.62758619;"
     id="path795" />
</svg>
