<?xml version="1.0" encoding="UTF-8" standalone="no"?>
<!DOCTYPE svg PUBLIC "-//W3C//DTD SVG 1.0//EN"
"http://www.w3.org/TR/2001/REC-SVG-20010904/DTD/svg10.dtd">
<!-- Created with Inkscape (http://www.inkscape.org/) -->
<svg
   xmlns="http://www.w3.org/2000/svg"
   xmlns:xlink="http://www.w3.org/1999/xlink"
   version="1.0"
   x="0.0000000"
   y="0.0000000"
   width="29.999969"
   height="30.000000"
   viewBox="0 0 24 23"
   id="svg783">
  <defs
     id="defs786">
    <linearGradient
       id="linearGradient812">
      <stop
         style="stop-color:#7481ae;stop-opacity:1.0000000;"
         offset="0.0000000"
         id="stop813" />
      <stop
         style="stop-color:#9baada;stop-opacity:1.0000000;"
         offset="1.0000000"
         id="stop814" />
    </linearGradient>
    <linearGradient
       x1="0.37142900"
       y1="0.67487699"
       x2="0.37142900"
       y2="0.54679799"
       id="linearGradient815"
       xlink:href="#linearGradient812" />
    <linearGradient
       x1="0.47428599"
       y1="0.41871899"
       x2="0.47428599"
       y2="0.29064000"
       id="linearGradient816"
       xlink:href="#linearGradient812" />
    <radialGradient
       cx="0.67202598"
       cy="1.3290490"
       r="1.0391860"
       fx="0.68167198"
       fy="0.41902301"
       id="radialGradient818"
       xlink:href="#linearGradient812" />
    <radialGradient
       cx="0.31428599"
       cy="0.61576402"
       r="0.50000000"
       fx="0.31142899"
       fy="0.62315297"
       id="radialGradient819"
       xlink:href="#linearGradient812" />
  </defs>
  <path
     d="M 12.755920,15.704730 C 12.755920,15.704730 19.133880,9.3267690 19.133880,9.3267690 C 19.133880,9.3267690 12.755920,2.9488100 12.755920,2.9488100 C 12.755920,2.9488100 12.755920,6.4921210 12.755920,6.4921210 C 6.3779590,6.4921210 5.1058920,10.172140 4.9606350,12.870080 C 4.9606350,17.122050 7.7952830,20.665360 10.629930,20.665360 C 7.0866210,17.122050 5.6833440,12.114620 12.755920,12.161420 C 12.755920,12.161420 12.755920,15.704730 12.755920,15.704730 z "
     style="font-size:12.000000;fill:url(#radialGradient818);stroke:#000000;stroke-width:0.80000103"
     id="path790" />
</svg>
