<?xml version="1.0" encoding="UTF-8" standalone="no"?>
<!DOCTYPE svg PUBLIC "-//W3C//DTD SVG 1.0//EN"
"http://www.w3.org/TR/2001/REC-SVG-20010904/DTD/svg10.dtd">
<!-- Created with Inkscape (http://www.inkscape.org/) -->
<svg
   xmlns="http://www.w3.org/2000/svg"
   xmlns:xlink="http://www.w3.org/1999/xlink"
   version="1.0"
   x="0.0000000"
   y="0.0000000"
   width="30.000000"
   height="30.000000"
   id="svg951">
  <defs
     id="defs953" />
  <path
     d="M 14.835214,25.570866 C 14.835214,25.570866 29.304041,3.0002192 29.304041,3.0002192 C 25.176604,1.2285658 22.269903,4.6293260 20.349593,4.4115897 C 20.349593,4.4115897 14.436912,19.274605 14.436912,19.274605 C 14.436912,19.274605 10.311619,13.307452 10.311619,13.307452 C 8.5399653,11.535799 7.6331481,13.397523 8.5189749,15.169176 C 8.5189749,15.169176 14.835214,25.570866 14.835214,25.570866 z "
     style="fill:#6fd662;fill-opacity:1.0000000;fill-rule:evenodd;stroke:#000000;stroke-width:1.1250000;stroke-miterlimit:4.0000000;"
     id="path954" />
  <path
     d="M 13.822480,21.890815 C 13.758628,21.582950 11.285659,17.770405 10.855473,17.086050 M 15.184603,20.013639 C 18.639699,11.742825 20.762171,6.1219410 21.006160,5.4204483 C 21.673752,5.5478732 25.726958,2.8620662 27.683832,3.6235392"
     style="fill:none;fill-opacity:0.72027999;fill-rule:evenodd;stroke:#ffffff;stroke-width:0.87500000;stroke-linecap:round;stroke-miterlimit:4.0000000;stroke-opacity:0.90816325;"
     id="path795" />
  <path
     d="M 14.971936,23.942853 C 15.889487,22.684076 26.293686,4.9665628 27.007784,3.3450060"
     style="fill:none;fill-opacity:0.72027999;fill-rule:evenodd;stroke:#000000;stroke-width:2.7500000;stroke-linecap:round;stroke-miterlimit:4.0000000;stroke-opacity:0.28571430;"
     id="path796" />
</svg>
