<?xml version="1.0" encoding="UTF-8" standalone="no"?>
<!DOCTYPE svg PUBLIC "-//W3C//DTD SVG 1.0//EN"
"http://www.w3.org/TR/2001/REC-SVG-20010904/DTD/svg10.dtd">
<!-- Created with Inkscape (http://www.inkscape.org/) -->
<svg
   xmlns="http://www.w3.org/2000/svg"
   xmlns:xlink="http://www.w3.org/1999/xlink"
   version="1.0"
   x="0.0000000"
   y="0.0000000"
   width="30.000000"
   height="30.000000"
   id="svg951">
  <defs
     id="defs953" />
  <path
     d="M 6.1665449,12.989744 C 4.8339356,12.989744 4.8712767,18.517303 6.1665449,18.517303 C 6.1665449,18.517303 24.683974,18.517303 24.683974,18.517303 C 25.857432,18.517303 25.939532,12.989744 24.683974,12.989744 C 24.683974,12.989744 6.1665449,12.989744 6.1665449,12.989744 z "
     style="fill:none;fill-opacity:1.0000000;fill-rule:evenodd;stroke:#313131;stroke-width:1.5000000;stroke-miterlimit:4.0000000;stroke-opacity:0.49999997;"
     id="path1676" />
  <path
     d="M 5.2912133,11.716535 C 3.9586040,11.716535 3.9959451,17.244094 5.2912133,17.244094 C 5.2912133,17.244094 23.808643,17.244094 23.808643,17.244094 C 24.982101,17.244094 25.064201,11.716535 23.808643,11.716535 C 23.808643,11.716535 5.2912133,11.716535 5.2912133,11.716535 z "
     style="fill:#8081c8;fill-opacity:1.0000000;fill-rule:evenodd;stroke:#313131;stroke-width:1.5000000;stroke-miterlimit:4.0000000;"
     id="path954" />
  <path
     d="M 5.8054780,14.053690 C 5.8054780,13.610780 7.0679610,13.441210 8.4866940,13.416789 C 9.9054270,13.392367 22.898130,13.279638 23.148130,13.604823"
     style="fill:none;fill-opacity:0.72027999;fill-rule:evenodd;stroke:#ffffff;stroke-width:1.1250000;stroke-linecap:round;stroke-opacity:0.62758619;"
     id="path795" />
</svg>
