<?xml version="1.0" encoding="UTF-8" standalone="no"?>
<!DOCTYPE svg PUBLIC "-//W3C//DTD SVG 1.0//EN"
"http://www.w3.org/TR/2001/REC-SVG-20010904/DTD/svg10.dtd">
<!-- Created with Inkscape (http://www.inkscape.org/) -->
<svg
   xmlns="http://www.w3.org/2000/svg"
   xmlns:xlink="http://www.w3.org/1999/xlink"
   version="1.0"
   x="0.0000000"
   y="0.0000000"
   width="30.000000"
   height="30.000000"
   id="svg1">
  <defs
     id="defs3">
    <linearGradient
       id="linearGradient891">
      <stop
         style="stop-color:#3b75ce;stop-opacity:1.0000000;"
         offset="0.0000000"
         id="stop892" />
      <stop
         style="stop-color:#819fce;stop-opacity:1.0000000;"
         offset="1.0000000"
         id="stop893" />
    </linearGradient>
    <linearGradient
       x1="0.49302325"
       y1="0.50000000"
       x2="0.64186049"
       y2="0.64953274"
       id="linearGradient894"
       xlink:href="#linearGradient891"
       spreadMethod="reflect" />
  </defs>
  <path
     d="M 29.245759,22.401675 L 29.245759,25.395866 L 26.310752,25.708826 L 25.202839,25.174673 L 12.202452,11.287566 C 9.5804036,12.598589 6.9583568,11.287565 5.6473331,9.9765424 C 4.3363095,8.6655184 4.6492693,5.7305121 5.9602929,5.7305121 C 6.3324370,7.1458556 8.5823401,8.3525593 10.578468,6.6242559 C 12.261636,4.8367682 12.202452,0.79937733 13.513475,2.1104010 C 14.824499,3.4214246 16.344162,5.6713278 15.033139,8.2933750 L 28.711606,21.502402 L 29.245759,22.401675 z "
     style="fill:none;fill-rule:evenodd;stroke:#000000;stroke-width:1.5000000;stroke-linejoin:bevel;stroke-opacity:0.27000001;"
     id="path903" />
  <path
     d="M 10.520677,16.857276 C 10.520677,16.857276 3.9655593,23.412394 3.9655593,23.412394 C 2.6545356,27.345465 5.2765829,29.967512 9.2096538,28.656489 C 9.2096538,28.656489 15.764771,22.101371 15.764771,22.101371 C 17.075795,18.168300 14.453748,15.546253 10.520677,16.857276 z "
     style="fill:none;fill-opacity:0.75000000;fill-rule:evenodd;stroke:#000000;stroke-width:1.8750000;stroke-linejoin:bevel;stroke-opacity:0.27000001;"
     id="path902" />
  <path
     d="M 28.842520,21.448755 L 28.842520,24.442946 L 25.907513,24.755906 L 24.799600,24.221753 L 11.799213,10.334646 C 9.1771650,11.645669 6.5551182,10.334645 5.2440945,9.0236220 C 3.9330709,7.7125977 4.2460307,4.7775914 5.5570543,4.7775914 C 5.9291984,6.1929349 8.1791015,7.3996386 10.175229,5.6713352 C 11.858397,3.8838475 9.4901251,1.6339443 7.8661417,2.0512241 C 7.8661417,0.74020061 11.799213,-0.15354331 13.110236,1.1574803 C 14.421260,2.4685039 15.940923,4.7184071 14.629900,7.3404543 L 28.308367,20.549482 L 28.842520,21.448755 z "
     style="fill:#d7d7d7;fill-rule:evenodd;stroke:#000000;stroke-linejoin:bevel;"
     id="path882" />
  <path
     d="M 26.742072,23.862162 C 30.153543,23.444882 26.220472,19.511811 26.220472,19.511811 C 26.220472,19.511811 14.421260,7.7125984 14.421260,7.7125984 M 10.905469,10.230326 C 7.8642456,11.140375 5.8848102,9.0983499 5.2440945,8.0255583"
     style="fill:none;fill-opacity:0.75000000;fill-rule:evenodd;stroke:#000000;stroke-width:1.8750000;stroke-linecap:round;stroke-opacity:0.39310345;"
     id="path900" />
  <path
     d="M 16.045243,17.098404 C 16.045243,17.098404 23.911385,9.2322619 23.911385,9.2322619 C 25.013769,9.6495417 28.783336,5.7756553 28.783336,5.7756553 C 29.420959,4.8678703 26.756113,2.2598640 25.848329,2.8406481 C 25.848329,2.8406481 22.078762,6.7145346 22.600362,7.9212383 C 22.600362,7.9212383 14.734220,15.787380 14.734220,15.787380 L 16.045243,17.098404 z "
     style="fill:#d7d7d7;fill-rule:evenodd;stroke:#000000;"
     id="path880" />
  <path
     d="M 10.488189,16.100340 C 10.488189,16.100340 3.5609266,22.923282 3.5609266,22.923282 C 1.5196634,26.171249 5.5570543,30.208640 8.8050212,28.167377 C 8.8050212,28.167377 15.732283,21.344435 15.732283,21.344435 C 17.728411,17.932964 13.795340,13.999893 10.488189,16.100340 z "
     style="fill:url(#linearGradient894);fill-opacity:0.75000000;fill-rule:evenodd;stroke:#000000;stroke-width:1.1250000;stroke-linejoin:bevel;"
     id="path877" />
  <path
     d="M 11.566013,17.549025 C 11.020734,17.795206 5.1397745,23.698657 5.1397745,23.698657 C 4.8719503,23.966482 4.3028711,25.182547 5.5804563,26.062250"
     style="fill:none;fill-opacity:0.75000000;fill-rule:evenodd;stroke:#ffffff;stroke-width:1.1250000;stroke-linecap:round;stroke-opacity:0.86206895;"
     id="path899" />
  <path
     d="M 26.220472,21.478346 C 26.220819,21.116072 25.927235,20.822207 25.564961,20.822207 C 25.202686,20.822207 24.909102,21.116072 24.909449,21.478346 C 24.909102,21.840620 25.202686,22.134485 25.564961,22.134485 C 25.927235,22.134485 26.220819,21.840620 26.220472,21.478346 L 26.220472,21.478346 z "
     transform="translate(0.655512,-0.133911)"
     style="fill-rule:evenodd;stroke-width:3.0000000pt;"
     id="path901" />
  <metadata
     id="metadata16">
    <RDF
       id="RDF17">
      <Work
         about=""
         id="Work18">
        <format
           id="format19">image/svg+xml</format>
        <type
           id="type21"
           resource="http://purl.org/dc/dcmitype/StillImage" />
      </Work>
    </RDF>
    <rdf:RDF
       id="RDF1639">
      <cc:Work
         rdf:about=""
         id="Work1640">
        <dc:format
           id="format1641">image/svg+xml</dc:format>
        <dc:type
           id="type1643"
           rdf:resource="http://purl.org/dc/dcmitype/StillImage" />
      </cc:Work>
    </rdf:RDF>
  </metadata>
</svg>
