<?xml version="1.0" encoding="UTF-8" standalone="no"?>
<!DOCTYPE svg PUBLIC "-//W3C//DTD SVG 1.0//EN"
"http://www.w3.org/TR/2001/REC-SVG-20010904/DTD/svg10.dtd">
<!-- Created with Inkscape (http://www.inkscape.org/) -->
<svg
   xmlns="http://www.w3.org/2000/svg"
   xmlns:xlink="http://www.w3.org/1999/xlink"
   version="1.0"
   x="0.0000000"
   y="0.0000000"
   width="30.000000"
   height="30.000000"
   id="svg951">
  <defs
     id="defs953" />
  <path
     d="M 12.367619,15.740096 C 12.367619,15.740096 5.5777129,22.149050 5.5777129,22.149050 C 4.1064763,23.615054 5.9026303,25.382911 6.9157705,24.555920 C 6.9157705,24.555920 13.746940,18.271108 13.746940,18.271108 C 13.746940,18.271108 16.830709,23.799213 16.830709,23.799213 C 17.716535,25.890582 25.797065,24.533308 24.591522,23.221193 C 24.591522,23.221193 17.387738,15.217163 17.387738,15.217163 C 17.387738,15.217163 24.368068,9.2691134 24.368068,9.2691134 C 25.624595,8.2094409 23.781703,6.1508575 22.595946,7.1746368 C 22.595946,7.1746368 15.485487,13.056185 15.485487,13.056185 C 15.485487,13.056185 11.277022,8.7882475 11.277022,8.7882475 C 8.4620527,5.7288980 7.4111716,6.2045859 8.9273481,9.1275402 C 8.9273481,9.1275402 12.367619,15.740096 12.367619,15.740096 z "
     style="fill:#d35b5b;fill-opacity:1.0000000;fill-rule:evenodd;stroke:#000000;stroke-width:1.1250000;stroke-miterlimit:4.0000000;"
     id="path954" />
  <path
     d="M 10.000012,7.9734360 C 11.027484,8.8639320 22.899774,23.562338 23.284643,23.999448 M 6.4210265,24.201487 C 6.8600901,24.134933 13.311597,18.016237 13.696380,17.647523 M 16.717279,15.149670 C 17.234830,14.690893 23.135933,9.4036300 24.281272,8.4329263"
     style="fill:none;fill-opacity:0.72027999;fill-rule:evenodd;stroke:#000000;stroke-width:1.8750000;stroke-linecap:round;stroke-miterlimit:4.0000000;stroke-opacity:0.22959180;"
     id="path796" />
  <path
     d="M 17.773422,23.472693 C 17.406991,22.856964 12.862500,14.625295 9.1548260,7.7495620 M 6.0702423,23.320581 C 5.5102423,23.080581 13.322086,16.199138 13.322086,16.199138 M 15.956167,13.972731 C 21.142702,9.5394971 24.061467,6.8891612 23.354251,8.1733800"
     style="fill:none;fill-opacity:0.72027999;fill-rule:evenodd;stroke:#ffffff;stroke-width:0.87500000;stroke-linecap:round;stroke-miterlimit:4.0000000;stroke-opacity:0.83163267;"
     id="path795" />
</svg>
