<?xml version="1.0" encoding="UTF-8" standalone="no"?>
<!DOCTYPE svg PUBLIC "-//W3C//DTD SVG 1.0//EN"
"http://www.w3.org/TR/2001/REC-SVG-20010904/DTD/svg10.dtd">
<!-- Created with Inkscape (http://www.inkscape.org/) -->
<svg
   xmlns="http://www.w3.org/2000/svg"
   xmlns:xlink="http://www.w3.org/1999/xlink"
   version="1.0"
   x="0.0000000"
   y="0.0000000"
   width="30.000000"
   height="30.000000"
   id="svg951">
  <defs
     id="defs953" />
  <path
     d="M 12.910080,12.532420 C 12.910080,12.532420 7.8077140,12.532420 7.8077140,12.532420 C 4.4061390,12.532420 4.4061390,18.059980 7.8077140,18.059980 C 7.8077140,18.059980 12.910080,18.059980 12.910080,18.059980 C 12.910080,18.059980 12.910080,23.162340 12.910080,23.162340 C 12.910080,26.563910 18.437640,26.563910 18.437640,23.162340 C 18.437640,23.162340 18.437640,18.059980 18.437640,18.059980 C 18.437640,18.059980 23.540000,18.059980 23.540000,18.059980 C 26.941570,18.059980 26.941570,12.532420 23.540000,12.532420 C 23.540000,12.532420 18.437640,12.532420 18.437640,12.532420 C 18.437640,12.532420 18.437640,7.4300570 18.437640,7.4300570 C 18.437640,4.0284820 12.910080,4.0284820 12.910080,7.4300570 C 12.910080,7.4300570 12.910080,12.532420 12.910080,12.532420 z "
     style="fill:none;fill-rule:evenodd;stroke:#000000;stroke-width:1.3750000;stroke-opacity:0.49999997;"
     id="path813" />
  <path
     d="M 11.905512,11.716535 C 11.905512,11.716535 6.8031496,11.716535 6.8031496,11.716535 C 3.4015748,11.716535 3.4015748,17.244094 6.8031496,17.244094 C 6.8031496,17.244094 11.905512,17.244094 11.905512,17.244094 C 11.905512,17.244095 11.905512,22.346457 11.905512,22.346457 C 11.905512,25.748031 17.433071,25.748031 17.433071,22.346457 C 17.433071,22.346457 17.433071,17.244094 17.433071,17.244094 C 17.433071,17.244094 22.535433,17.244094 22.535433,17.244094 C 25.937008,17.244094 25.937008,11.716535 22.535433,11.716535 C 22.535433,11.716535 17.433071,11.716535 17.433071,11.716535 C 17.433071,11.716535 17.433071,6.6141732 17.433071,6.6141732 C 17.433071,3.2125984 11.905512,3.2125984 11.905512,6.6141732 C 11.905512,6.6141732 11.905512,11.716535 11.905512,11.716535 z "
     style="fill:#7f93c8;fill-opacity:1.0000000;fill-rule:evenodd;stroke:#313131;stroke-width:1.5000000;stroke-miterlimit:4.0000000;"
     id="path954" />
  <path
     d="M 13.979940,22.956180 C 13.615450,22.041220 13.763186,17.126021 13.965696,16.592061 M 5.8054780,14.053690 C 5.8054780,13.167870 11.202740,13.375410 12.452740,13.650780 M 16.776181,13.561144 C 17.635571,13.363904 22.937400,13.237490 23.413270,13.718450 M 13.629828,12.140263 C 13.549268,10.236262 13.129850,4.4288400 14.809270,6.2876300"
     style="fill:none;fill-opacity:0.72027999;fill-rule:evenodd;stroke:#ffffff;stroke-width:1.1250000;stroke-linecap:round;stroke-opacity:0.62758619;"
     id="path795" />
</svg>
