<?xml version="1.0" encoding="UTF-8" standalone="no"?>
<!DOCTYPE svg PUBLIC "-//W3C//DTD SVG 1.0//EN"
"http://www.w3.org/TR/2001/REC-SVG-20010904/DTD/svg10.dtd">
<!-- Created with Inkscape (http://www.inkscape.org/) -->
<svg
   xmlns="http://www.w3.org/2000/svg"
   xmlns:xlink="http://www.w3.org/1999/xlink"
   version="1.0"
   x="0.0000000"
   y="0.0000000"
   width="31.250000"
   height="31.250000"
   id="svg1">
  <defs
     id="defs3">
    <linearGradient
       id="linearGradient784">
      <stop
         style="stop-color:#99f9b9;stop-opacity:1.0000000;"
         offset="0.0000000"
         id="stop785" />
      <stop
         style="stop-color:#005f0e;stop-opacity:1.0000000;"
         offset="1.0000000"
         id="stop786" />
    </linearGradient>
    <radialGradient
       cx="0.13023256"
       cy="0.24299066"
       r="0.62806344"
       fx="0.33023256"
       fy="0.35046729"
       id="radialGradient787"
       xlink:href="#linearGradient784" />
    <linearGradient
       x1="1.2192514"
       y1="0.97663552"
       x2="0.66210043"
       y2="0.40654206"
       id="linearGradient804"
       xlink:href="#linearGradient784" />
  </defs>
  <path
     d="M 14.173228,2.9035431 C 21.259842,2.9035431 26.574803,8.2185037 26.574803,15.305118 C 26.574803,22.391732 21.259842,27.706693 14.173228,27.706693 C 7.0866141,27.706693 1.7716535,22.391732 1.7716535,15.305118 C 1.7716535,8.2185037 7.0866141,2.9035431 14.173228,2.9035431 z "
     style="fill:url(#radialGradient787);fill-opacity:0.75000000;fill-rule:evenodd;stroke:#000000;stroke-width:1.0000000;stroke-miterlimit:4.0000000"
     id="path783" />
  <path
     d="M 24.533748,17.151421 C 23.673812,20.958846 20.370991,25.202571 14.709147,25.588366"
     style="fill:none;fill-opacity:0.75000000;fill-rule:evenodd;stroke:#ffffff;stroke-width:1.0000000pt;stroke-linecap:round;stroke-opacity:0.33000001"
     id="path805" />
  <path
     d="M 10.629922,10.875984 C 10.629922,10.386755 10.233324,9.9901571 9.7440951,9.9901571 C 9.2548663,9.9901571 8.8582681,10.386755 8.8582681,10.875984 C 8.8582681,11.365213 9.2548663,11.761811 9.7440951,11.761811 C 10.233324,11.761811 10.629922,11.365213 10.629922,10.875984 z "
     style="fill:#ffffff;fill-rule:evenodd;stroke-width:3.0000000pt"
     id="path814" />
</svg>
