<?xml version="1.0" encoding="UTF-8" standalone="no"?>
<!DOCTYPE svg PUBLIC "-//W3C//DTD SVG 1.0//EN"
"http://www.w3.org/TR/2001/REC-SVG-20010904/DTD/svg10.dtd">
<!-- Created with Inkscape (http://www.inkscape.org/) -->
<svg
   xmlns="http://www.w3.org/2000/svg"
   xmlns:xlink="http://www.w3.org/1999/xlink"
   version="1.0"
   x="0.0000000"
   y="0.0000000"
   width="29.999969"
   height="30.000000"
   viewBox="0 0 24 23"
   id="svg783">
  <defs
     id="defs786">
    <linearGradient
       id="linearGradient799">
      <stop
         style="stop-color:#5d6eae;stop-opacity:1.0000000;"
         offset="0.0000000"
         id="stop800" />
      <stop
         style="stop-color:#7382b6;stop-opacity:1.0000000;"
         offset="0.56664002"
         id="stop843" />
      <stop
         style="stop-color:#98a8da;stop-opacity:1.0000000;"
         offset="1.0000000"
         id="stop801" />
    </linearGradient>
    <linearGradient
       id="linearGradient812">
      <stop
         style="stop-color:#99a9da;stop-opacity:1.0000000;"
         offset="0.0000000"
         id="stop813" />
      <stop
         style="stop-color:#97a7d8;stop-opacity:1.0000000;"
         offset="0.73912001"
         id="stop842" />
      <stop
         style="stop-color:#5c70ae;stop-opacity:1.0000000;"
         offset="1.0000000"
         id="stop814" />
    </linearGradient>
    <linearGradient
       x1="0.37142900"
       y1="0.67487699"
       x2="0.37142900"
       y2="0.54679799"
       id="linearGradient815"
       xlink:href="#linearGradient812" />
    <linearGradient
       x1="0.47428599"
       y1="0.41871899"
       x2="0.47428599"
       y2="0.29064000"
       id="linearGradient816"
       xlink:href="#linearGradient812" />
    <radialGradient
       cx="0.70287538"
       cy="1.4127424"
       r="1.1509253"
       fx="0.51351351"
       fy="0.58593750"
       id="radialGradient818"
       xlink:href="#linearGradient799" />
    <radialGradient
       cx="0.36421725"
       cy="-0.42382267"
       r="1.1336899"
       fx="0.37060702"
       fy="0.18391210"
       id="radialGradient819"
       xlink:href="#linearGradient812" />
  </defs>
  <path
     d="M 11.917655,16.092052 C 11.917655,16.092052 17.629540,21.359754 17.629540,21.359754 C 17.629540,21.359754 17.629539,18.760551 17.629539,18.760551 C 24.285842,18.760551 22.952012,15.990711 22.952012,12.597882 C 22.952012,9.6642008 21.647434,8.2008008 20.566663,7.7222303 C 20.834867,8.1697784 23.747326,13.973541 16.674746,13.926731 C 14.331163,11.322750 11.917655,16.092052 11.917655,16.092052 z "
     style="font-size:12.000000;fill:none;stroke:#000000;stroke-width:2.2000022;stroke-opacity:0.089999981"
     id="path845" />
  <path
     d="M 8.6349559,13.509740 C 8.6349559,13.509740 14.433638,8.3758451 14.433638,8.3758451 C 14.433638,8.3758451 8.3185070,2.2715343 2.0104951,11.870026 C 2.1304951,14.542816 5.6586573,19.044677 8.5622123,17.613669 C 5.2560277,16.471721 1.4755815,10.581157 8.5481565,10.627967 C 8.5481565,10.627967 8.6349559,13.509740 8.6349559,13.509740 z "
     style="font-size:12.000000;fill:none;stroke:#000000;stroke-width:2.1000021;stroke-opacity:0.10999996"
     id="path844" />
  <path
     d="M 16.153950,9.6561711 C 16.153950,9.6561711 9.9212700,15.310858 9.9212700,15.310858 C 9.9212700,15.310858 16.153950,20.925758 16.153950,20.925758 C 16.153950,20.925758 16.153950,17.805758 16.153950,17.805758 C 23.157450,17.805758 23.153950,14.427818 23.299210,11.729888 C 23.179210,9.0570951 20.866240,4.4684281 17.007890,5.5522461 C 20.400870,6.4337911 23.226530,13.018748 16.153950,12.971938 C 16.153950,12.971938 16.153950,9.6561711 16.153950,9.6561711 z "
     style="font-size:12.000000;fill:url(#radialGradient819);stroke:#000000;stroke-width:0.70000100"
     id="kopia kopia kopia selection_to_path" />
  <path
     d="M 7.9405610,12.902144 C 7.9405610,12.902144 14.173240,7.2474534 14.173240,7.2474534 C 14.173240,7.2474534 7.9405610,1.6325524 7.9405610,1.6325524 C 7.9405610,1.6325524 7.9405610,4.7525524 7.9405610,4.7525524 C 0.93706100,4.7525524 0.94056100,8.1304914 0.79530400,10.828434 C 0.91530400,13.501224 3.2282750,18.089884 7.0866230,17.006074 C 3.6936390,16.124524 0.86798600,9.5395644 7.9405610,9.5863744 C 7.9405610,9.5863744 7.9405610,12.902144 7.9405610,12.902144 z "
     style="font-size:12.000000;fill:url(#radialGradient818);stroke:#000000;stroke-width:0.70000100"
     id="path790" />
  <path
     d="M 13.218450,7.4171834 C 13.218450,7.4171834 8.4444847,2.9904158 8.4444847,2.9904158 M 15.779031,10.997657 C 15.779031,10.997657 10.939967,15.405971 10.939967,15.405971"
     style="fill:none;fill-opacity:0.75000000;fill-rule:evenodd;stroke:#ffffff;stroke-width:0.80000079;stroke-linecap:round;stroke-opacity:0.86896551"
     id="path838" />
</svg>
