<?xml version="1.0" encoding="UTF-8" standalone="no"?>
<!DOCTYPE svg PUBLIC "-//W3C//DTD SVG 1.0//EN"
"http://www.w3.org/TR/2001/REC-SVG-20010904/DTD/svg10.dtd">
<svg
   xmlns="http://www.w3.org/2000/svg"
   xmlns:xlink="http://www.w3.org/1999/xlink"
   version="1.0"
   x="0.0000000"
   y="0.0000000"
   width="30.000000"
   height="30.000000"
   viewBox="0 0 24 24"
   id="svg783">
  <defs
     id="defs786" />
  <path
     d="M 7.2132409,4.7082731 C 7.2456139,4.6919661 7.1011128,6.2492387 7.9778607,7.3988066 C 8.9870657,8.7776026 10.894974,11.597496 10.894974,11.597496 C 10.894974,11.597496 5.2893280,17.990030 5.4445010,17.943610 C 5.6991420,18.070930 7.0418210,18.085070 7.3456950,17.815600 C 8.8728830,16.524490 12.290318,13.343111 12.290318,13.343111 C 12.290318,13.343111 15.662605,17.622050 15.662605,17.622050 C 15.940223,17.876692 18.385374,17.949235 18.868259,17.480389 C 19.223824,17.138863 19.526938,16.510591 19.340112,15.490923 C 17.092313,14.113599 14.336928,11.564961 14.336928,11.564961 C 14.336928,11.564961 17.606978,8.6381100 17.752218,8.4749800 C 18.111258,6.8348310 17.191724,4.6010899 16.325874,4.6010899 C 15.427817,6.0147116 12.340252,9.8710197 12.340252,9.8710197 C 11.703647,9.3617359 9.0765633,7.4241411 7.2132409,4.7082731 z "
     style="font-size:12.000000;stroke:#000000;stroke-width:0.0000000;"
     id="selection_to_path" />
</svg>
