<?xml version="1.0" encoding="UTF-8" standalone="no"?>
<!DOCTYPE svg PUBLIC "-//W3C//DTD SVG 1.0//EN"
"http://www.w3.org/TR/2001/REC-SVG-20010904/DTD/svg10.dtd">
<svg
   xmlns="http://www.w3.org/2000/svg"
   xmlns:xlink="http://www.w3.org/1999/xlink"
   version="1.0"
   x="0.0000000"
   y="0.0000000"
   width="30.000000"
   height="30.000000"
   id="svg859">
  <defs
     id="defs861">
    <linearGradient
       id="linearGradient983">
      <stop
         style="stop-color:#ffffff;stop-opacity:1.0000000;"
         offset="0.0000000"
         id="stop984" />
      <stop
         style="stop-color:#ffffff;stop-opacity:1.0000000;"
         offset="0.50000000"
         id="stop839" />
      <stop
         style="stop-color:#cfcfc9;stop-opacity:1.0000000;"
         offset="1.0000000"
         id="stop985" />
    </linearGradient>
    <radialGradient
       cx="0.52381003"
       cy="0.51739103"
       r="0.43357900"
       fx="0.21212099"
       fy="0.30869600"
       id="radialGradient821"
       xlink:href="#linearGradient983" />
    <radialGradient
       cx="0.52093023"
       cy="0.52336448"
       r="0.38139534"
       fx="0.26046503"
       fy="0.30841124"
       id="radialGradient869"
       xlink:href="#linearGradient983" />
  </defs>
  <path
     d="M 24.803149,14.055119 C 24.804135,8.1836784 20.044669,3.4234122 14.173228,3.4234122 C 8.3017875,3.4234122 3.5423209,8.1836784 3.5433073,14.055119 C 3.5423209,19.926560 8.3017875,24.686826 14.173228,24.686826 C 20.044669,24.686826 24.804135,19.926560 24.803149,14.055119 L 24.803149,14.055119 z "
     transform="translate(-0.896654,-0.875000)"
     style="fill:none;fill-opacity:0.75000000;fill-rule:evenodd;stroke:#000000;stroke-width:1.7500000;stroke-opacity:0.23999996;"
     id="path873" />
  <path
     d="M 21.913227,21.907653 L 26.687341,26.681767"
     style="font-size:12.000000;fill:none;fill-opacity:0.75000000;fill-rule:evenodd;stroke:#000000;stroke-width:4.6250000;stroke-linecap:round;"
     id="path986" />
  <path
     d="M 24.803149,14.055119 C 24.804135,8.1836784 20.044669,3.4234122 14.173228,3.4234122 C 8.3017875,3.4234122 3.5423209,8.1836784 3.5433073,14.055119 C 3.5423209,19.926560 8.3017875,24.686826 14.173228,24.686826 C 20.044669,24.686826 24.804135,19.926560 24.803149,14.055119 L 24.803149,14.055119 z "
     transform="translate(-1.771653,-1.771654)"
     style="fill:url(#radialGradient869);fill-opacity:0.75000000;fill-rule:evenodd;stroke:#000000;stroke-width:1.2500000;"
     id="path871" />
  <path
     d="M 21.709990,23.054860 C 21.420540,23.464133 26.612696,28.573610 26.737562,27.898389"
     style="fill:none;fill-opacity:0.75000000;fill-rule:evenodd;stroke:#fffffc;stroke-width:1.0000000pt;stroke-linecap:round;stroke-opacity:0.75862068;"
     id="path872" />
  <path
     d="M 12.401575,7.4346805 L 12.401575,17.132248"
     style="fill:none;fill-opacity:0.75000000;fill-rule:evenodd;stroke:#000000;stroke-width:2.2500000;"
     id="path875" />
  <path
     d="M 17.460184,12.283465 L 7.5527907,12.283465"
     style="fill:none;fill-opacity:0.75000000;fill-rule:evenodd;stroke:#000000;stroke-width:2.2500000;"
     id="path876" />
</svg>
