<?xml version="1.0" encoding="UTF-8" standalone="no"?>
<!DOCTYPE svg PUBLIC "-//W3C//DTD SVG 1.0//EN"
"http://www.w3.org/TR/2001/REC-SVG-20010904/DTD/svg10.dtd">
<svg
   xmlns="http://www.w3.org/2000/svg"
   xmlns:xlink="http://www.w3.org/1999/xlink"
   version="1.0"
   x="0.0000000"
   y="0.0000000"
   width="60.000000"
   height="60.000000"
   id="svg876">
  <defs
     id="defs878">
    <linearGradient
       id="linearGradient947">
      <stop
         style="stop-color:#ffffff;stop-opacity:0.89403975;"
         offset="0.0000000"
         id="stop948" />
      <stop
         style="stop-color:#ffffff;stop-opacity:0.12582782;"
         offset="1.0000000"
         id="stop949" />
    </linearGradient>
    <linearGradient
       id="linearGradient935">
      <stop
         style="stop-color:#000000;stop-opacity:1.0000000;"
         offset="0.0000000"
         id="stop936" />
      <stop
         style="stop-color:#8b8b8b;stop-opacity:0.0000000;"
         offset="1.0000000"
         id="stop937" />
    </linearGradient>
    <linearGradient
       id="linearGradient924">
      <stop
         style="stop-color:#621700;stop-opacity:1.0000000;"
         offset="0.0000000"
         id="stop925" />
      <stop
         style="stop-color:#ffcaba;stop-opacity:1.0000000;"
         offset="1.0000000"
         id="stop926" />
    </linearGradient>
    <linearGradient
       id="linearGradient919">
      <stop
         style="stop-color:#6a220c;stop-opacity:1.0000000;"
         offset="0.0000000"
         id="stop920" />
      <stop
         style="stop-color:#bf7b65;stop-opacity:1.0000000;"
         offset="1.0000000"
         id="stop921" />
    </linearGradient>
    <linearGradient
       id="linearGradient914">
      <stop
         style="stop-color:#cccccc;stop-opacity:1.0000000;"
         offset="0.0000000"
         id="stop915" />
      <stop
         style="stop-color:#ffffff;stop-opacity:1.0000000;"
         offset="1.0000000"
         id="stop916" />
    </linearGradient>
    <radialGradient
       cx="0.60465115"
       cy="0.55607474"
       r="0.38342771"
       fx="0.62382048"
       fy="0.60961354"
       id="radialGradient917"
       xlink:href="#linearGradient935" />
    <linearGradient
       x1="-7.9011233e-18"
       y1="0.50000000"
       x2="1.0000000"
       y2="0.50000000"
       id="linearGradient918"
       xlink:href="#linearGradient919" />
    <linearGradient
       x1="0.52863437"
       y1="0.87850469"
       x2="0.52863437"
       y2="0.0046728970"
       id="linearGradient927"
       xlink:href="#linearGradient914"
       spreadMethod="pad" />
    <radialGradient
       cx="0.53035146"
       cy="0.41836736"
       r="0.34865898"
       fx="0.45755449"
       fy="0.42304024"
       id="radialGradient944"
       xlink:href="#linearGradient935" />
    <linearGradient
       x1="0.021097047"
       y1="0.51046026"
       x2="0.45147678"
       y2="0.51046026"
       id="linearGradient946"
       xlink:href="#linearGradient947"
       spreadMethod="reflect" />
  </defs>
  <path
     d="M -7.0588390,38.796779 C -7.0588390,20.442449 68.980531,20.442448 68.980531,20.442448 C 68.980530,20.442447 66.358483,67.639299 66.358483,67.639299 C 66.358482,67.639299 -7.0588391,67.639299 -7.0588391,67.639299 C -7.0588387,67.639299 -7.0588390,38.796779 -7.0588390,38.796779 z "
     style="fill:url(#radialGradient944);fill-rule:evenodd;stroke-width:0.12500000;stroke-dasharray:0.12500000 0.50000000 ;stroke-dashoffset:0.0000000;stroke-opacity:0.50344825;"
     id="path943" />
  <path
     d="M 2.1683610,15.425197 C 2.1683610,10.181102 10.488189,4.3565485 28.842520,4.3565485 C 47.196850,4.3565485 55.516678,10.181102 55.516678,15.425197 C 55.516678,36.401575 38.526064,53.721760 28.842520,53.721760 C 19.158845,53.721760 2.1683610,36.401575 2.1683610,15.425197 z "
     style="fill:#ac4c22;fill-rule:evenodd;stroke:#5a1b00;stroke-width:1.3750000;"
     id="path879" />
  <path
     d="M 6.9587693,16.095549 C 6.9613134,14.159119 13.110236,8.7066216 28.842520,8.7066216 C 44.574803,8.7066216 50.942937,13.913981 51.174868,16.095549 C 51.174868,36.780114 34.233355,49.284968 28.842520,49.284968 C 23.678528,49.284968 6.9587693,36.968076 6.9587693,16.095549 z "
     style="fill:url(#linearGradient927);fill-rule:evenodd;stroke:url(#linearGradient918);stroke-width:1.6250000;"
     id="path922" />
  <path
     d="M 31.464567,39.023621 C 31.465133,37.575104 30.291037,36.400550 28.842520,36.400550 C 27.394003,36.400550 26.219907,37.575104 26.220473,39.023621 C 26.219907,40.472138 27.394003,41.646692 28.842520,41.646692 C 30.291037,41.646692 31.465133,40.472138 31.464567,39.023621 z "
     transform="translate(-0.226842,-0.453686)"
     style="fill:none;fill-rule:evenodd;stroke:#ffffff;stroke-width:1.7500000;"
     id="path931" />
  <path
     d="M 29.296206,16.786255 C 36.010445,16.786255 35.220829,22.937722 35.220829,22.937722 C 34.694146,26.454989 31.010880,30.123336 31.010880,30.123336 C 29.876665,31.257551 29.523048,32.745384 30.557194,33.779529"
     style="fill:none;fill-opacity:0.75000000;fill-rule:evenodd;stroke:#000000;stroke-width:3.6250000;stroke-linecap:round;stroke-opacity:0.25999996;"
     id="path932" />
  <path
     d="M 31.464567,39.023621 C 31.465133,37.575104 30.291037,36.400550 28.842520,36.400550 C 27.394003,36.400550 26.219907,37.575104 26.220473,39.023621 C 26.219907,40.472138 27.394003,41.646692 28.842520,41.646692 C 30.291037,41.646692 31.465133,40.472138 31.464567,39.023621 z "
     transform="translate(1.587902,0.680529)"
     style="fill-opacity:0.26206896;fill-rule:evenodd;stroke-width:3.0000000pt;"
     id="path930" />
  <path
     d="M 31.464567,39.023621 C 31.465133,37.575104 30.291037,36.400550 28.842520,36.400550 C 27.394003,36.400550 26.219907,37.575104 26.220473,39.023621 C 26.219907,40.472138 27.394003,41.646692 28.842520,41.646692 C 30.291037,41.646692 31.465133,40.472138 31.464567,39.023621 z "
     transform="translate(0.680530,0.000000)"
     style="fill-opacity:0.98620689;fill-rule:evenodd;stroke-width:3.0000000pt;"
     id="path929" />
  <path
     d="M 22.137297,22.710879 C 21.053116,19.635145 22.137297,16.559412 27.027775,16.559412 C 32.834642,16.559412 32.498712,21.576663 32.498712,21.576663 C 31.972029,25.093930 28.288763,28.762277 28.288763,28.762277 C 27.154548,29.896492 26.800931,31.384325 27.835077,32.418470"
     style="fill:none;fill-opacity:0.75000000;fill-rule:evenodd;stroke:#ffffff;stroke-width:3.6250000;stroke-linecap:round;"
     id="path933" />
  <path
     d="M 24.178885,22.710879 C 23.094704,19.635145 23.725199,16.786255 28.615677,16.786255 C 34.422544,16.786255 33.632928,21.803506 33.632928,21.803506 C 33.106245,25.320773 29.876665,28.535434 29.876665,28.535434 C 28.742450,29.669649 28.161990,30.930639 29.196136,31.964784"
     style="fill:none;fill-opacity:0.75000000;fill-rule:evenodd;stroke:#000000;stroke-width:3.5000000;stroke-linecap:round;"
     id="path928" />
  <path
     d="M 27.107750,47.296787 C 31.618596,50.215052 40.424657,40.457456 42.149457,37.883501 C 44.101101,35.082702 48.765686,29.232214 49.887181,16.403395 M 26.447315,5.8443803 C 9.1019484,6.3230586 4.8204159,12.072876 3.8563327,14.064272 C 2.2684310,19.088058 7.6531136,44.795830 26.654064,52.173913"
     style="fill:none;fill-opacity:0.75000000;fill-rule:evenodd;stroke:url(#linearGradient946);stroke-linecap:round;stroke-opacity:0.58620691;"
     id="path945" />
</svg>
