/* XPM */
static char * title_3_active_xpm[] = {
"15 29 15 1",
" 	c None",
".	c #444444",
"+	c #616161",
"@	c #545454",
"#	c #525252",
"$	c #505050",
"%	c #4D4D4D",
"&	c #4B4B4B",
"*	c #494949",
"=	c #474747",
"-	c #424242",
";	c #404040",
">	c #3D3D3D",
",	c #3B3B3B",
"'	c #393939",
"...............",
"+++++++++++++++",
"@@@@@@@@@@@@@@@",
"###############",
"$$$$$$$$$$$$$$$",
"%%%%%%%%%%%%%%%",
"&&&&&&&&&&&&&&&",
"***************",
"===============",
"...............",
"---------------",
";;;;;;;;;;;;;;;",
">>>>>>>>>>>>>>>",
",,,,,,,,,,,,,,,",
"'''''''''''''''",
"'''''''''''''''",
"'''''''''''''''",
"'''''''''''''''",
"'''''''''''''''",
"'''''''''''''''",
"'''''''''''''''",
"'''''''''''''''",
"'''''''''''''''",
"'''''''''''''''",
"'''''''''''''''",
"'''''''''''''''",
"'''''''''''''''",
"'''''''''''''''",
"'''''''''''''''"};
