/* XPM */
static char * right_active_xpm[] = {
"4 15 3 1",
" 	c None",
".	c #D7D7D7",
"+	c #C1C1C1",
"...+",
"...+",
"...+",
"...+",
"...+",
"...+",
"...+",
"...+",
"...+",
"...+",
"...+",
"...+",
"...+",
"...+",
"...+"};
