/* XPM */
static char * right_inactive_xpm[] = {
"4 16 3 1",
" 	c None",
".	c #D7D7D7",
"+	c #CFCFCF",
"...+",
"...+",
"...+",
"...+",
"...+",
"...+",
"...+",
"...+",
"...+",
"...+",
"...+",
"...+",
"...+",
"...+",
"...+",
"...+"};
