/* XPM */
static char * title_1_inactive_xpm[] = {
"15 29 15 1",
" 	c None",
".	c #424242",
"+	c #505050",
"@	c #464646",
"#	c #454545",
"$	c #434343",
"%	c #414141",
"&	c #404040",
"*	c #3F3F3F",
"=	c #3E3E3E",
"-	c #3D3D3D",
";	c #3C3C3C",
">	c #3B3B3B",
",	c #3A3A3A",
"'	c #393939",
"...............",
"+++++++++++++++",
"@@@@@@@@@@@@@@@",
"###############",
"$$$$$$$$$$$$$$$",
"...............",
"%%%%%%%%%%%%%%%",
"&&&&&&&&&&&&&&&",
"***************",
"===============",
"---------------",
";;;;;;;;;;;;;;;",
">>>>>>>>>>>>>>>",
",,,,,,,,,,,,,,,",
"'''''''''''''''",
"'''''''''''''''",
"'''''''''''''''",
"'''''''''''''''",
"'''''''''''''''",
"'''''''''''''''",
"'''''''''''''''",
"'''''''''''''''",
"'''''''''''''''",
"'''''''''''''''",
"'''''''''''''''",
"'''''''''''''''",
"'''''''''''''''",
"'''''''''''''''",
"'''''''''''''''"};
