<?xml version="1.0" encoding="iso-8859-1"?>
<!-- Generator: Adobe Illustrator 9.0, SVG Export Plug-In  -->
<!DOCTYPE svg PUBLIC "-//W3C//DTD SVG 20000303 Stylable//EN"   "http://www.w3.org/TR/2000/03/WD-SVG-20000303/DTD/svg-20000303-stylable.dtd" [
	<!ENTITY st0 "fill:#000000;stroke:none;">
	<!ENTITY st1 "fill-rule:evenodd;clip-rule:evenodd;fill:url(#aigrd1);stroke:none;">
	<!ENTITY st2 "fill-rule:nonzero;clip-rule:nonzero;fill:#FFFFFF;stroke:#000000;stroke-miterlimit:4;">
	<!ENTITY st3 "opacity:0.6;">
	<!ENTITY st4 "opacity:0.5;fill:#000000;">
	<!ENTITY st5 "stroke:none;">
]>
<svg  width="17.036pt" height="17.036pt" viewBox="0 0 17.036 17.036" xml:space="preserve">
	<g id="Layer_x0020_1" style="&st2;">
		<path style="&st0;" d="M0,8.518c0,4.697,3.821,8.518,8.518,8.518c4.697,0,8.518-3.82,8.518-8.518C17.036,3.821,13.215,0,8.518,0C3.821,0,0,3.821,0,8.518z"/>
		<radialGradient id="aigrd1" cx="6.0088" cy="5.3652" r="10.6059" fx="6.0088" fy="5.3652" gradientUnits="userSpaceOnUse">
			<stop  offset="0" style="stop-color:#FED182"/>
			<stop  offset="0.2809" style="stop-color:#FFB310"/>
			<stop  offset="1" style="stop-color:#996E04"/>
		</radialGradient>
		<path style="&st1;" d="M15.7,8.433c0,4.013-3.254,7.267-7.266,7.267c-4.014,0-7.268-3.254-7.268-7.267c0-4.013,3.253-7.267,7.268-7.267c4.012,0,7.266,3.253,7.266,7.267z"/>
		<g id="close" style="&st5;">
			<path style="&st4;" d="M10.255,8.237l1.903-1.903c0.529-0.529,0.529-1.387,0-1.917s-1.388-0.529-1.917,0L8.339,6.321L6.436,4.418c-0.529-0.529-1.387-0.529-1.917,0s-0.529,1.387,0,1.917l1.903,1.903L4.52,10.139c-0.529,0.531-0.529,1.389,0,1.918
				s1.387,0.529,1.917,0l1.903-1.902l1.903,1.902c0.529,0.529,1.388,0.529,1.917,0s0.529-1.389,0-1.918l-1.903-1.902z"/>
			<path style="&st3;" d="M10.764,8.746l1.902-1.903c0.529-0.529,0.529-1.387,0-1.917s-1.387-0.529-1.916,0L8.848,6.829L6.945,4.927c-0.529-0.53-1.388-0.53-1.917,0c-0.529,0.529-0.529,1.387,0,1.917l1.903,1.903l-1.903,1.903c-0.529,0.529-0.529,1.387,0,1.918
				c0.53,0.529,1.388,0.529,1.917,0l1.903-1.904l1.902,1.902c0.529,0.531,1.387,0.531,1.916,0c0.529-0.529,0.529-1.387,0-1.916l-1.902-1.903z"/>
			<path d="M10.51,8.492l1.902-1.903c0.529-0.529,0.529-1.388,0-1.917s-1.387-0.529-1.916,0L8.593,6.575L6.69,4.672c-0.529-0.529-1.387-0.529-1.917,0s-0.529,1.388,0,1.917l1.903,1.903l-1.903,1.903c-0.529,0.529-0.529,1.387,0,1.916s1.387,0.529,1.917,0
				l1.903-1.902l1.903,1.902c0.529,0.529,1.387,0.529,1.916,0s0.529-1.387,0-1.916L10.51,8.492z"/>
		</g>
	</g>
</svg>
