<?xml version="1.0" encoding="iso-8859-1"?>
<!-- Generator: Adobe Illustrator 9.0, SVG Export Plug-In  -->
<!DOCTYPE svg PUBLIC "-//W3C//DTD SVG 20000303 Stylable//EN"   "http://www.w3.org/TR/2000/03/WD-SVG-20000303/DTD/svg-20000303-stylable.dtd" [
	<!ENTITY st0 "fill:#000000;stroke:none;">
	<!ENTITY st1 "fill-rule:evenodd;clip-rule:evenodd;fill:url(#aigrd1);stroke:none;">
	<!ENTITY st2 "fill-rule:nonzero;clip-rule:nonzero;fill:#FFFFFF;stroke:#000000;stroke-miterlimit:4;">
	<!ENTITY st3 "opacity:0.6;">
	<!ENTITY st4 "fill:#000000;">
	<!ENTITY st5 "fill-rule:evenodd;clip-rule:evenodd;stroke:none;">
]>
<svg  width="17.036pt" height="17.036pt" viewBox="0 0 17.036 17.036" xml:space="preserve">
	<g id="Layer_x0020_1" style="&st2;">
		<path style="&st0;" d="M0,8.518c0,4.697,3.821,8.518,8.518,8.518c4.697,0,8.518-3.82,8.518-8.518C17.036,3.821,13.215,0,8.518,0C3.821,0,0,3.821,0,8.518z"/>
		<radialGradient id="aigrd1" cx="6.0088" cy="5.3652" r="10.6059" fx="6.0088" fy="5.3652" gradientUnits="userSpaceOnUse">
			<stop  offset="0" style="stop-color:#FED182"/>
			<stop  offset="0.2809" style="stop-color:#FFB310"/>
			<stop  offset="1" style="stop-color:#996E04"/>
		</radialGradient>
		<path style="&st1;" d="M15.7,8.433c0,4.013-3.254,7.267-7.266,7.267c-4.014,0-7.268-3.254-7.268-7.267c0-4.013,3.253-7.267,7.268-7.267c4.012,0,7.266,3.253,7.266,7.267z"/>
		<g id="menu" style="&st5;">
			<g style="&st4;">
				<path style="&st3;" d="M11.066,10.018H5.195c-0.702,0-1.272,0.568-1.272,1.271c0,0.701,0.57,1.271,1.272,1.271h5.871c0.702,0,1.272-0.57,1.272-1.271c0-0.703-0.57-1.271-1.272-1.271z"/>
				<path style="&st3;" d="M11.066,6.881H5.195c-0.702,0-1.272,0.569-1.272,1.271c0,0.703,0.57,1.272,1.272,1.272h5.871c0.702,0,1.272-0.569,1.272-1.272c0-0.702-0.57-1.271-1.272-1.271z"/>
				<path style="&st3;" d="M11.066,3.829H5.195c-0.702,0-1.272,0.569-1.272,1.271c0,0.703,0.57,1.272,1.272,1.272h5.871c0.702,0,1.272-0.569,1.272-1.272c0-0.702-0.57-1.271-1.272-1.271z"/>
			</g>
			<g>
				<path style="&st3;" d="M11.575,10.526H5.704c-0.703,0-1.271,0.57-1.271,1.271c0,0.703,0.569,1.271,1.271,1.271h5.871c0.703,0,1.271-0.568,1.271-1.271c0-0.701-0.568-1.271-1.271-1.271z"/>
				<path style="&st3;" d="M11.575,7.39H5.704c-0.703,0-1.271,0.569-1.271,1.271c0,0.703,0.569,1.271,1.271,1.271h5.871c0.703,0,1.271-0.568,1.271-1.271c0-0.702-0.568-1.271-1.271-1.271z"/>
				<path style="&st3;" d="M11.575,4.338H5.704c-0.703,0-1.271,0.569-1.271,1.271c0,0.703,0.569,1.272,1.271,1.272h5.871c0.703,0,1.271-0.569,1.271-1.272c0-0.702-0.568-1.271-1.271-1.271z"/>
			</g>
			<g>
				<path d="M11.321,10.272H5.45c-0.703,0-1.272,0.57-1.272,1.271c0,0.703,0.569,1.271,1.272,1.271h5.871c0.701,0,1.271-0.568,1.271-1.271c0-0.701-0.57-1.271-1.271-1.271z"/>
				<path d="M11.321,7.135H5.45c-0.703,0-1.272,0.569-1.272,1.272c0,0.702,0.569,1.271,1.272,1.271h5.871c0.701,0,1.271-0.569,1.271-1.271c0-0.703-0.57-1.272-1.271-1.272z"/>
				<path d="M11.321,4.083H5.45c-0.703,0-1.272,0.569-1.272,1.271S4.748,6.626,5.45,6.626h5.871c0.701,0,1.271-0.569,1.271-1.271s-0.57-1.271-1.271-1.271z"/>
			</g>
		</g>
	</g>
</svg>
