/* XPM */
static char * close_pressed_xpm[] = {
"12 18 52 1",
" 	c None",
".	c #939393",
"+	c #FFFFFF",
"@	c #DEDEDE",
"#	c #CFD9CD",
"$	c #7EBF77",
"%	c #D1D9D1",
"&	c #CFDACE",
"*	c #7DBE76",
"=	c #7CC177",
"-	c #5BB551",
";	c #70BC68",
">	c #D3DBD3",
",	c #D0DAD0",
"'	c #6EBA66",
")	c #7DC076",
"!	c #E2E6EC",
"~	c #7AC472",
"{	c #65BC5C",
"]	c #7BC274",
"^	c #78C070",
"/	c #7EC676",
"(	c #E2E7EC",
"_	c #E1E1E1",
":	c #E6EFE5",
"<	c #84CB7D",
"[	c #70C367",
"}	c #89CE82",
"|	c #E9F0E8",
"1	c #D7DBDF",
"2	c #90D389",
"3	c #7ACB71",
"4	c #8CD185",
"5	c #D5DED4",
"6	c #D4DDD3",
"7	c #92D58B",
"8	c #83D27A",
"9	c #95D88E",
"0	c #93D88C",
"a	c #91D48A",
"b	c #A2DC9C",
"c	c #8DD985",
"d	c #9CDD95",
"e	c #EAF1E9",
"f	c #E7ECF1",
"g	c #9ADD93",
"h	c #E5EEE4",
"i	c #A9E4A4",
"j	c #E9F2E8",
"k	c #E9EDF3",
"l	c #AAE4A4",
"m	c #F2F2F2",
"............",
"++++++++++++",
"@@@@@@@@@@@@",
"@@@@@@@@@@@@",
"@@@@@@@@@@@@",
"@@@@@@@@@@@@",
"@@#$%@@&*#@@",
"@@=-;>,'-)@@",
"@@!~{]^{/(@@",
"@@_:<[[}|_@@",
"@@@123345@@@",
"@@678908a6@@",
"@@bcdefgcb@@",
"@@hij__klh@@",
"@@_m_@@_m_@@",
"@@@@@@@@@@@@",
"@@@@@@@@@@@@",
"@@@@@@@@@@@@"};
