/* XPM */
static char * maximize_pressed_xpm[] = {
"12 18 11 1",
" 	c None",
".	c #939393",
"+	c #FFFFFF",
"@	c #DEDEDE",
"#	c #5BB551",
"$	c #5CB553",
"%	c #65BC5C",
"&	c #7ACB71",
"*	c #F4F4F4",
"=	c #93D88C",
"-	c #9ADD93",
"............",
"++++++++++++",
"@@@@@@@@@@@@",
"@@@@@@@@@@@@",
"@@@@@@@@@@@@",
"@@@@@@@@@@@@",
"@@@@@##@@@@@",
"@@@@@$$@@@@@",
"@@@@@%%@@@@@",
"@@%%%%%%%%@@",
"@@&&&&&&&&@@",
"@@***&&***@@",
"@@@@@==@@@@@",
"@@@@@--@@@@@",
"@@@@@**@@@@@",
"@@@@@@@@@@@@",
"@@@@@@@@@@@@",
"@@@@@@@@@@@@"};
