/* XPM */
static char * shade_pressed_xpm[] = {
"12 18 18 1",
" 	c None",
".	c #8D8D8D",
"+	c #FFFFFF",
"@	c #DEDEDE",
"#	c #7ACB71",
"$	c #81CD79",
"%	c #78C670",
"&	c #70C367",
"*	c #83CA7C",
"=	c #80C77B",
"-	c #65BC5C",
";	c #8DCC86",
">	c #8BC385",
",	c #5CB553",
"'	c #8EC589",
")	c #E8EBEE",
"!	c #EBECED",
"~	c #E3EDE1",
"............",
"++++++++++++",
"@@@@@@@@@@@@",
"@@@@@@@@@@@@",
"@@@@@@@@@@@@",
"@@@@@@@@@@@@",
"@@@@@@@@@@@@",
"@@@@@#$@@@@@",
"@@@@%&&*@@@@",
"@@@=-;;-;@@@",
"@@>,'))','@@",
"@@!~)@@))!@@",
"@@@@@@@@@@@@",
"@@@@@@@@@@@@",
"@@@@@@@@@@@@",
"@@@@@@@@@@@@",
"@@@@@@@@@@@@",
"@@@@@@@@@@@@"};
