/* XPM */
static char * shade_toggled_pressed_xpm[] = {
"12 18 26 1",
" 	c None",
".	c #8D8D8D",
"+	c #FFFFFF",
"@	c #DEDEDE",
"#	c #8BC385",
"$	c #5CB553",
"%	c #8EC589",
"&	c #EBECED",
"*	c #80C77B",
"=	c #65BC5C",
"-	c #8DCC86",
";	c #E3EDE1",
">	c #78C670",
",	c #70C367",
"'	c #83CA7C",
")	c #E8EBEE",
"!	c #E1E1E1",
"~	c #D1EACE",
"{	c #7ACB71",
"]	c #81CD79",
"^	c #E1EEE0",
"/	c #DFDFDF",
"(	c #E5E5E5",
"_	c #B7E3B3",
":	c #D4EBD1",
"<	c #ECECEC",
"............",
"++++++++++++",
"@@@@@@@@@@@@",
"@@@@@@@@@@@@",
"@@@@@@@@@@@@",
"@@@@@@@@@@@@",
"@@@@@@@@@@@@",
"@@#$%@@%$%@@",
"@@&*=--=-&@@",
"@@@;>,,')@@@",
"@@@!~{]^/@@@",
"@@@@(_:!@@@@",
"@@@@@<(@@@@@",
"@@@@@@@@@@@@",
"@@@@@@@@@@@@",
"@@@@@@@@@@@@",
"@@@@@@@@@@@@",
"@@@@@@@@@@@@"};
