/* XPM */
static char * stick_toggled_pressed_xpm[] = {
"12 18 20 1",
" 	c None",
".	c #8D8D8D",
"+	c #FFFFFF",
"@	c #DEDEDE",
"#	c #5BB551",
"$	c #5BB652",
"%	c #5CB553",
"&	c #5CB652",
"*	c #62BB5B",
"=	c #63BC5A",
"-	c #ECECEC",
";	c #6CC163",
">	c #75C86C",
",	c #74C76B",
"'	c #7DCE74",
")	c #7CCD73",
"!	c #83D37B",
"~	c #85D37D",
"{	c #85D47C",
"]	c #8DD985",
"............",
"++++++++++++",
"@@@@@@@@@@@@",
"@@@@@@@@@@@@",
"@@@@@@@@@@@@",
"@@@@@@@@#@@@",
"@@@@##@@##@@",
"@@@$%&@$$$$@",
"@@*=--@==--@",
"@@;;@@;--@@@",
"@@>,@@-@,,@@",
"@@')@@@@)'@@",
"@@-!~~~{~-@@",
"@@@-]]]]-@@@",
"@@@@----@@@@",
"@@@@@@@@@@@@",
"@@@@@@@@@@@@",
"@@@@@@@@@@@@"};
